<?xml version="1.0" encoding="utf-8"?>
<!-- Generator: Adobe Illustrator 23.1.0, SVG Export Plug-In . SVG Version: 6.00 Build 0)  -->
<svg version="1.1" id="Layer_1" xmlns="http://www.w3.org/2000/svg" xmlns:xlink="http://www.w3.org/1999/xlink" x="0px" y="0px"
	 viewBox="0 0 566.93 115.5" style="enable-background:new 0 0 566.93 115.5;" xml:space="preserve">
<style type="text/css">
	.st0{fill:#FFFFFF;}
</style>
<g>
	<g>
		<path class="st0" d="M6.32,55.08c3.5,3.73,8.99,7.01,16.08,7.01c7.31,0,10.2-3.58,10.2-6.93c0-4.57-5.41-5.94-11.58-7.54
			c-8.3-2.06-18.05-4.49-18.05-15.23c0-8.38,7.39-14.85,18.51-14.85c7.92,0,14.32,2.51,19.04,7.09l-5.1,6.62
			c-3.96-3.96-9.37-5.79-14.7-5.79c-5.25,0-8.6,2.51-8.6,6.32c0,3.96,5.18,5.26,11.19,6.78c8.38,2.13,18.36,4.72,18.36,15.77
			c0,8.45-5.94,15.69-19.65,15.69c-9.36,0-16.15-3.27-20.64-8.07L6.32,55.08z"/>
		<path class="st0" d="M81.37,59.34H57.3l-3.73,9.75h-9.75l19.96-50.8H74.9l19.96,50.8H85.1L81.37,59.34z M59.81,51.5h19.05
			l-9.53-25.67L59.81,51.5z"/>
		<path class="st0" d="M100.44,18.29h8.91v42.96h22.4v7.85h-31.31V18.29z"/>
		<path class="st0" d="M139.84,18.29h34.81v7.85h-25.9v13.18h25.37v7.85h-25.37v14.09h25.9v7.85h-34.81V18.29z"/>
		<path class="st0" d="M185.49,55.08c3.5,3.73,8.99,7.01,16.07,7.01c7.32,0,10.21-3.58,10.21-6.93c0-4.57-5.41-5.94-11.58-7.54
			c-8.3-2.06-18.05-4.49-18.05-15.23c0-8.38,7.39-14.85,18.51-14.85c7.92,0,14.32,2.51,19.04,7.09l-5.1,6.62
			c-3.96-3.96-9.37-5.79-14.7-5.79c-5.25,0-8.6,2.51-8.6,6.32c0,3.96,5.18,5.26,11.19,6.78c8.38,2.13,18.36,4.72,18.36,15.77
			c0,8.45-5.94,15.69-19.65,15.69c-9.37,0-16.15-3.27-20.64-8.07L185.49,55.08z"/>
		<path class="st0" d="M342.78,45.33c0-3.96-1.76-6.63-6.02-6.63c-3.58,0-6.93,2.51-8.53,4.87v25.74h-8V45.33
			c0-3.96-1.75-6.63-6.09-6.63c-3.5,0-6.78,2.51-8.45,4.95v25.67h-8V32.53h8v5.03c1.52-2.28,6.39-5.94,11.96-5.94
			c5.48,0,8.83,2.74,10.05,6.78c2.13-3.35,7.01-6.78,12.49-6.78c6.78,0,10.59,3.66,10.59,11.12v26.58h-7.99L342.78,45.33
			L342.78,45.33z"/>
		<path class="st0" d="M383.64,65.36c-2.74,3.12-7.01,4.87-11.88,4.87c-6.02,0-12.79-4.04-12.79-12.19
			c0-8.46,6.78-11.96,12.79-11.96c4.95,0,9.22,1.6,11.88,4.72v-5.48c0-4.27-3.5-6.86-8.61-6.86c-4.11,0-7.69,1.52-10.89,4.65
			l-3.27-5.56c4.27-4.03,9.59-5.94,15.46-5.94c8.15,0,15.31,3.43,15.31,13.33v24.37h-8V65.36z M383.64,55.38
			c-1.83-2.51-5.25-3.81-8.76-3.81c-4.5,0-7.85,2.59-7.85,6.63c0,3.96,3.35,6.55,7.85,6.55c3.5,0,6.93-1.29,8.76-3.81V55.38z"/>
		<path class="st0" d="M426.85,46.32c0-5.71-2.9-7.62-7.39-7.62c-4.12,0-7.62,2.44-9.45,4.95v25.67h-8V32.53h8v5.03
			c2.44-2.89,7.16-5.94,12.94-5.94c7.93,0,11.88,4.26,11.88,11.81v25.9h-7.99V46.32H426.85z"/>
		<path class="st0" d="M467.7,65.36c-2.74,3.12-7.01,4.87-11.88,4.87c-6.02,0-12.79-4.04-12.79-12.19c0-8.46,6.78-11.96,12.79-11.96
			c4.96,0,9.22,1.6,11.88,4.72v-5.48c0-4.27-3.5-6.86-8.61-6.86c-4.11,0-7.69,1.52-10.89,4.65l-3.27-5.56
			c4.27-4.03,9.59-5.94,15.46-5.94c8.15,0,15.31,3.43,15.31,13.33v24.37h-8V65.36z M467.7,55.38c-1.83-2.51-5.25-3.81-8.76-3.81
			c-4.5,0-7.85,2.59-7.85,6.63c0,3.96,3.35,6.55,7.85,6.55c3.5,0,6.93-1.29,8.76-3.81V55.38z"/>
		<path class="st0" d="M489.35,72.98c2.97,3.43,6.78,4.72,11.65,4.72c5.26,0,10.89-2.44,10.89-9.98V63.3
			c-2.82,3.66-7,6.09-11.8,6.09c-9.37,0-16.3-6.78-16.3-18.89c0-11.88,6.85-18.89,16.3-18.89c4.65,0,8.83,2.13,11.8,6.02v-5.1h8
			v34.89c0,13.25-9.82,16.83-18.89,16.83c-6.25,0-10.89-1.37-15.39-5.48L489.35,72.98z M511.89,43.65
			c-1.75-2.74-5.71-4.95-9.44-4.95c-6.33,0-10.36,4.72-10.36,11.81s4.04,11.81,10.36,11.81c3.73,0,7.69-2.21,9.44-4.95V43.65z"/>
		<path class="st0" d="M527.99,50.89c0-10.51,7.23-19.27,18.89-19.27c11.81,0,18.97,8.76,18.97,19.27
			c0,10.59-7.16,19.35-18.97,19.35C535.22,70.24,527.99,61.48,527.99,50.89z M557.54,50.89c0-6.47-3.81-12.19-10.67-12.19
			c-6.78,0-10.59,5.71-10.59,12.19c0,6.55,3.81,12.26,10.59,12.26C553.74,63.15,557.54,57.44,557.54,50.89z"/>
	</g>
	<polygon class="st0" points="230.43,76.42 243.25,67.58 243.25,31.47 230.43,40.31 	"/>
	<polygon class="st0" points="252.85,76.8 265.67,67.96 265.67,15.99 252.85,24.84 	"/>
	<polygon class="st0" points="275.27,9.37 275.27,76.8 288.09,67.96 288.09,0.52 	"/>
</g>
<g>
	<path class="st0" d="M19.54,106.69v-10.2c0-1.9-0.84-3.11-2.77-3.11c-1.55,0-3.2,1.12-3.98,2.3v11.01h-2.33V96.48
		c0-1.9-0.81-3.11-2.77-3.11c-1.52,0-3.14,1.12-3.95,2.33v10.98H1.42V91.67h2.33v2.18c0.62-0.96,2.64-2.55,4.85-2.55
		c2.3,0,3.6,1.24,4.04,2.8c0.84-1.37,2.86-2.8,5.03-2.8c2.73,0,4.19,1.52,4.19,4.54v10.85C21.87,106.69,19.54,106.69,19.54,106.69z"
		/>
	<path class="st0" d="M35.61,106.69v-1.71c-1.24,1.37-2.95,2.08-4.97,2.08c-2.55,0-5.25-1.71-5.25-4.97c0-3.36,2.7-4.94,5.25-4.94
		c2.05,0,3.76,0.65,4.97,2.05v-2.7c0-2.02-1.62-3.17-3.79-3.17c-1.8,0-3.26,0.65-4.6,2.08l-1.09-1.62c1.62-1.68,3.54-2.49,6-2.49
		c3.17,0,5.81,1.43,5.81,5.07v10.32C37.94,106.69,35.61,106.69,35.61,106.69z M35.61,103.51v-2.83c-0.9-1.24-2.49-1.87-4.13-1.87
		c-2.18,0-3.7,1.37-3.7,3.29c0,1.9,1.52,3.26,3.7,3.26C33.12,105.37,34.7,104.75,35.61,103.51z"/>
	<path class="st0" d="M42.29,106.69V91.67h2.33v2.42c1.21-1.58,2.95-2.73,5-2.73v2.39c-0.28-0.06-0.56-0.09-0.93-0.09
		c-1.43,0-3.39,1.18-4.07,2.39v10.63C44.62,106.69,42.29,106.69,42.29,106.69z"/>
	<path class="st0" d="M62.47,106.69l-5.41-6.74l-2.49,2.46v4.29h-2.33V85.95h2.33v13.71l7.89-7.99h2.95l-6.65,6.81l6.68,8.2h-2.97
		V106.69z"/>
	<path class="st0" d="M66.94,99.16c0-4.35,3.11-7.86,7.4-7.86c4.54,0,7.21,3.54,7.21,8.05v0.59H69.4c0.19,2.83,2.18,5.19,5.41,5.19
		c1.71,0,3.45-0.68,4.63-1.9l1.12,1.52c-1.49,1.49-3.51,2.3-5.97,2.3C70.15,107.06,66.94,103.85,66.94,99.16z M74.31,93.22
		c-3.2,0-4.79,2.7-4.91,5h9.85C79.22,95.99,77.73,93.22,74.31,93.22z"/>
	<path class="st0" d="M85.47,103.54v-9.82h-2.49v-2.05h2.49v-4.1h2.33v4.1h3.05v2.05H87.8v9.32c0,1.12,0.5,1.93,1.52,1.93
		c0.65,0,1.27-0.28,1.58-0.62l0.68,1.74c-0.59,0.56-1.43,0.96-2.8,0.96C86.59,107.06,85.47,105.78,85.47,103.54z"/>
	<path class="st0" d="M93.43,87.97c0-0.87,0.71-1.58,1.55-1.58c0.87,0,1.58,0.71,1.58,1.58s-0.71,1.55-1.58,1.55
		C94.14,89.52,93.43,88.84,93.43,87.97z M93.83,106.69V91.67h2.33v15.02H93.83z"/>
	<path class="st0" d="M110.65,106.69v-9.82c0-2.64-1.34-3.48-3.36-3.48c-1.83,0-3.57,1.12-4.44,2.33v10.98h-2.33V91.67h2.33v2.18
		c1.06-1.24,3.11-2.55,5.34-2.55c3.14,0,4.79,1.59,4.79,4.85v10.53C112.98,106.69,110.65,106.69,110.65,106.69z"/>
	<path class="st0" d="M117.3,110.54l1.18-1.74c1.24,1.49,2.73,2.05,4.88,2.05c2.49,0,4.82-1.21,4.82-4.51v-2.14
		c-1.09,1.52-2.92,2.67-5.03,2.67c-3.92,0-6.68-2.92-6.68-7.77c0-4.82,2.73-7.8,6.68-7.8c2.02,0,3.82,0.99,5.03,2.64v-2.26h2.33
		v14.58c0,4.97-3.48,6.53-7.15,6.53C120.81,112.78,119.07,112.28,117.3,110.54z M128.19,102.36V95.8c-0.81-1.3-2.61-2.42-4.47-2.42
		c-3.01,0-4.82,2.39-4.82,5.72c0,3.29,1.8,5.72,4.82,5.72C125.57,104.81,127.38,103.66,128.19,102.36z"/>
	<path class="st0" d="M151.97,106.69v-1.71c-1.24,1.37-2.95,2.08-4.97,2.08c-2.55,0-5.25-1.71-5.25-4.97c0-3.36,2.7-4.94,5.25-4.94
		c2.05,0,3.76,0.65,4.97,2.05v-2.7c0-2.02-1.62-3.17-3.79-3.17c-1.8,0-3.26,0.65-4.6,2.08l-1.09-1.62c1.62-1.68,3.54-2.49,6-2.49
		c3.17,0,5.81,1.43,5.81,5.07v10.32C154.3,106.69,151.97,106.69,151.97,106.69z M151.97,103.51v-2.83c-0.9-1.24-2.49-1.87-4.13-1.87
		c-2.18,0-3.7,1.37-3.7,3.29c0,1.9,1.52,3.26,3.7,3.26C149.48,105.37,151.06,104.75,151.97,103.51z"/>
	<path class="st0" d="M168.77,106.69v-2.11c-1.15,1.31-3.11,2.49-5.34,2.49c-3.14,0-4.79-1.52-4.79-4.79v-10.6h2.33v9.88
		c0,2.64,1.34,3.42,3.36,3.42c1.83,0,3.57-1.06,4.44-2.27V91.67h2.33v15.02H168.77z"/>
	<path class="st0" d="M175.93,103.54v-9.82h-2.49v-2.05h2.49v-4.1h2.33v4.1h3.05v2.05h-3.05v9.32c0,1.12,0.5,1.93,1.52,1.93
		c0.65,0,1.27-0.28,1.58-0.62l0.68,1.74c-0.59,0.56-1.43,0.96-2.8,0.96C177.05,107.06,175.93,105.78,175.93,103.54z"/>
	<path class="st0" d="M183.42,99.16c0-4.35,2.86-7.86,7.43-7.86c4.57,0,7.43,3.51,7.43,7.86s-2.86,7.89-7.43,7.89
		C186.28,107.06,183.42,103.51,183.42,99.16z M195.83,99.16c0-3.04-1.77-5.78-4.97-5.78c-3.2,0-5,2.74-5,5.78
		c0,3.08,1.8,5.81,5,5.81C194.06,104.97,195.83,102.23,195.83,99.16z"/>
	<path class="st0" d="M219.89,106.69v-10.2c0-1.9-0.84-3.11-2.77-3.11c-1.55,0-3.2,1.12-3.98,2.3v11.01h-2.33V96.48
		c0-1.9-0.81-3.11-2.77-3.11c-1.52,0-3.14,1.12-3.95,2.33v10.98h-2.33V91.67h2.33v2.18c0.62-0.96,2.64-2.55,4.85-2.55
		c2.3,0,3.6,1.24,4.04,2.8c0.84-1.37,2.86-2.8,5.03-2.8c2.73,0,4.19,1.52,4.19,4.54v10.85C222.2,106.69,219.89,106.69,219.89,106.69
		z"/>
	<path class="st0" d="M235.96,106.69v-1.71c-1.24,1.37-2.95,2.08-4.97,2.08c-2.55,0-5.25-1.71-5.25-4.97c0-3.36,2.7-4.94,5.25-4.94
		c2.05,0,3.76,0.65,4.97,2.05v-2.7c0-2.02-1.62-3.17-3.79-3.17c-1.8,0-3.26,0.65-4.6,2.08l-1.09-1.62c1.62-1.68,3.54-2.49,6-2.49
		c3.17,0,5.81,1.43,5.81,5.07v10.32C238.29,106.69,235.96,106.69,235.96,106.69z M235.96,103.51v-2.83
		c-0.9-1.24-2.49-1.87-4.13-1.87c-2.18,0-3.7,1.37-3.7,3.29c0,1.9,1.52,3.26,3.7,3.26C233.46,105.37,235.06,104.75,235.96,103.51z"
		/>
	<path class="st0" d="M243.11,103.54v-9.82h-2.49v-2.05h2.49v-4.1h2.33v4.1h3.04v2.05h-3.04v9.32c0,1.12,0.5,1.93,1.52,1.93
		c0.65,0,1.27-0.28,1.59-0.62l0.68,1.74c-0.59,0.56-1.43,0.96-2.8,0.96C244.23,107.06,243.11,105.78,243.11,103.54z"/>
	<path class="st0" d="M251.06,87.97c0-0.87,0.71-1.58,1.55-1.58c0.87,0,1.59,0.71,1.59,1.58s-0.71,1.55-1.59,1.55
		C251.78,89.52,251.06,88.84,251.06,87.97z M251.47,106.69V91.67h2.33v15.02H251.47z"/>
	<path class="st0" d="M257.29,99.16c0-4.35,2.86-7.86,7.43-7.86c4.57,0,7.43,3.51,7.43,7.86s-2.86,7.89-7.43,7.89
		C260.14,107.06,257.29,103.51,257.29,99.16z M269.68,99.16c0-3.04-1.77-5.78-4.97-5.78c-3.2,0-5,2.74-5,5.78
		c0,3.08,1.8,5.81,5,5.81C267.91,104.97,269.68,102.23,269.68,99.16z"/>
	<path class="st0" d="M285.76,106.69v-9.82c0-2.64-1.34-3.48-3.36-3.48c-1.83,0-3.57,1.12-4.44,2.33v10.98h-2.33V91.67h2.33v2.18
		c1.06-1.24,3.11-2.55,5.35-2.55c3.14,0,4.78,1.59,4.78,4.85v10.53C288.09,106.69,285.76,106.69,285.76,106.69z"/>
</g>
</svg>
